:SAMPLES-PER-SECOND 30
:FULLY-SPECIFIED
:DEGREES
517
root  -28.4182 38.4789 -24.7265 -31.4103 -75.5237 29.3956
RightUpLeg  -14.1395 -20.6891 -23.2658
RightLeg  -4.5585 -19.9417 6.82225
RightFoot  13.5576 -3.64948 16.8474
RightToes  0.00048216 0.542163 -0.142577
Spine  34.128 -2.70886 3.73736
Spine1  11.2979 -0.658703 -3.66301
HEad  8.62021 43.926 -19.7819
LeftShoulder1  9.5801 -14.2997 -46.9565
LeftArm  -15.4056 19.4012 -22.0119
LeftForeArm  14.86 -30.1359 -5.7441
LeftHand  -0.25398 0.0180481 5.50724
RightShoulder  5.94077 10.0494 37.7971
RightArm  24.7498 -27.0633 34.7907
RightForeArm  -18.5192 24.2032 6.06306
RightHand  -0.907001 0.76001 -17.1692
LeftUpLeg  -4.80197 11.2776 2.37987
LeftLeg  30.1785 3.23697 2.38454
LeftFoot  -18.4609 -0.408041 -8.36896
LeftToes  1.06245e-005 4.65855e-005 -8.18504e-006
518
root  -27.4465 38.3726 -23.9918 -30.8198 -74.4501 28.368
RightUpLeg  -12.5729 -21.0789 -24.9766
RightLeg  -7.04432 -24.1926 7.5346
RightFoot  8.48747 -3.00322 17.3281
RightToes  0.00048216 0.542163 -0.142577
Spine  32.9787 -2.07668 1.71062
Spine1  11.52 -0.829048 -3.07046
HEad  9.94079 45.1813 -18.6716
LeftShoulder1  9.35681 -13.9818 -46.6888
LeftArm  -16.4635 18.4826 -22.112
LeftForeArm  13.1344 -30.6953 -5.97827
LeftHand  -0.25398 0.0180481 5.50724
RightShoulder  5.87948 9.86916 37.9247
RightArm  20.9325 -27.7163 36.8532
RightForeArm  -17.1319 23.3573 5.88167
RightHand  -0.891718 0.624513 -17.2442
LeftUpLeg  -6.69034 12.2443 0.555736
LeftLeg  32.1047 2.24765 1.87899
LeftFoot  -19.4215 -0.323249 -6.18335
LeftToes  1.06245e-005 4.65855e-005 -8.18504e-006
519
root  -26.5217 38.4199 -23.3344 -28.2197 -73.6473 25.6158
RightUpLeg  -11.6292 -21.3162 -25.7253
RightLeg  -8.17658 -29.5486 8.56919
RightFoot  5.16153 -2.13389 14.9081
RightToes  0.00048216 0.542163 -0.142577
Spine  31.811 -1.73351 0.753039
Spine1  11.5529 -0.78123 -2.97487
HEad  11.1417 45.994 -17.6544
LeftShoulder1  9.17525 -13.7539 -46.3788
LeftArm  -16.8584 17.8681 -22.2063
LeftForeArm  11.2737 -30.5732 -6.05376
LeftHand  -0.25398 0.0180481 5.50724
RightShoulder  5.8421 9.74353 38.0542
RightArm  16.7302 -27.6699 38.7886
RightForeArm  -14.249 22.4988 5.77401
RightHand  -0.834676 0.367378 -16.8345
LeftUpLeg  -8.58796 13.2402 -0.616015
LeftLeg  33.2306 1.05527 1.11661
LeftFoot  -18.5275 -0.155393 -4.22413
LeftToes  1.06245e-005 4.65855e-005 -8.18504e-006
520
root  -25.6212 38.6746 -22.6809 -24.7748 -74.0519 21.8099
RightUpLeg  -11.5549 -21.4819 -25.0898
RightLeg  -5.11695 -30.3006 8.12701
RightFoot  4.76775 -1.68856 12.1366
RightToes  0.00048216 0.542163 -0.142577
Spine  31.0019 -1.61894 1.6645
Spine1  11.6516 -0.126025 -3.87503
HEad  12.2228 46.6001 -16.9154
LeftShoulder1  9.03327 -13.5906 -46.0891
LeftArm  -17.0119 17.9337 -22.4602
LeftForeArm  10.5099 -30.2568 -6.0191
LeftHand  -0.25398 0.0180481 5.50724
RightShoulder  5.82366 9.72426 37.9821
RightArm  14.7211 -26.9683 40.1041
RightForeArm  -10.5132 22.2148 5.61724
RightHand  -0.596691 -0.83099 -14.9759
LeftUpLeg  -9.19055 14.6209 -0.947802
LeftLeg  32.3237 0.478605 0.691237
LeftFoot  -16.9261 -0.0287017 -2.67281
LeftToes  1.06245e-005 4.65855e-005 -8.18504e-006
521
root  -24.7937 39.0449 -22.0666 -21.9007 -75.4665 18.3372
RightUpLeg  -13.2462 -23.5164 -22.5816
RightLeg  4.19422 -22.1164 4.49348
RightFoot  4.65121 -1.61376 11.6836
RightToes  0.00048216 0.542163 -0.142577
Spine  30.342 -1.37514 3.06597
Spine1  11.7224 0.990273 -5.41291
HEad  13.3276 47.5603 -16.6187
LeftShoulder1  8.95748 -13.4366 -46.1185
LeftArm  -16.9442 18.7019 -22.7336
LeftForeArm  10.7093 -29.7683 -5.88918
LeftHand  -0.25398 0.0180481 5.50724
RightShoulder  5.81872 9.78631 37.7482
RightArm  15.4577 -25.5798 40.3359
RightForeArm  -7.09796 22.4882 5.40289
RightHand  -0.316985 -2.53856 -12.4373
LeftUpLeg  -8.57058 15.9145 -0.924818
LeftLeg  29.8938 0.774047 0.835494
LeftFoot  -15.4118 0.0488276 -1.23039
LeftToes  1.06245e-005 4.65855e-005 -8.18504e-006
